<?xml version="1.0" standalone="no"?>
<!DOCTYPE svg PUBLIC "-//W3C//DTD SVG 1.1//EN" "http://www.w3.org/Graphics/SVG/1.1/DTD/svg11.dtd">
<svg xmlns="http://www.w3.org/2000/svg">
<metadata>Generated by Fontastic.me</metadata>
<defs>
<font id="qood-life" horiz-adv-x="512">
<font-face font-family="qood-life" units-per-em="512" ascent="480" descent="-32"/>
<missing-glyph horiz-adv-x="512" />

<glyph glyph-name="arrow-right" unicode="&#104;" d="M478 232c0 7 0 14 0 21 0 3-4 6-7 10l-212 205c-10 10-27 10-37 0-10-11-10-28 0-38l164-160-359 0c-13 0-27-11-27-28 0-17 14-27 27-27l359 0-164-160c-10-11-10-28 0-38 7-7 14-7 20-7 7 0 14 4 21 7l211 205c0 7 0 7 4 10z"/>
<glyph glyph-name="blog" unicode="&#105;" d="M258 490c-132 0-239-84-239-185 0-46 20-87 56-119 5-5 9-12 9-20l0-154c3-9 8-10 13-10 4 0 7 1 11 3l105 108c5 5 14 8 23 8 8 0 17-2 23-2 134 0 241 84 241 186-2 101-109 185-242 185z m-147-442l0 129c0 9-3 16-10 23-7 5-12 10-17 15-24 26-38 56-38 90 0 88 96 158 213 158 118 0 214-70 214-158 0-87-96-157-214-157-5 0-12 0-17 0-5 0-12 0-17 2-8 2-17-2-22-8l-2-2z"/>
<glyph glyph-name="calendar-o" unicode="&#106;" d="M382 410l-24 0 0 44c0 14-10 24-23 24-14 0-28-10-28-24l0-44-102 0 0 44c0 14-10 24-24 24-14 0-27-10-27-24l0-44-24 0c-51 0-96-41-96-93l0-174c0-51 45-92 96-92l252 0c51 0 96 41 96 92l0 174c0 52-41 93-96 93z m48-267c0-24-20-44-44-44l-256 0c-24 0-45 20-45 44l0 174c0 24 21 45 45 45l24 0 0-38c0-13 10-24 23-24 14 0 28 11 28 24l0 38 102 0 0-38c0-13 10-24 24-24 14 0 24 11 24 24l0 38 24 0c24 0 44-21 44-45l0-174z m-109 144l-126 0c-14 0-24-11-24-24 0-14 10-24 24-24l81 0-44-82c-7-10-3-27 10-34 4-4 7-4 11-4 10 0 17 4 20 14l65 116c3 7 3 17 0 24 0 10-7 14-17 14z"/>
<glyph glyph-name="check" unicode="&#107;" d="M256 0c-7 0-14 3-20 7l-229 229c-10 10-10 30 0 40 10 11 31 11 41 0l198-197 208 416c7 14 24 20 38 14 13-7 20-24 13-38l-222-454c-3-7-13-14-20-17-4 0-7 0-7 0z"/>
<glyph glyph-name="radio-checked" unicode="&#108;" d="M259 430c96 0 174-75 174-167 0-92-78-167-174-167-95 0-174 75-174 167 0 92 79 167 174 167m0 48c-126 0-225-99-225-219 0-119 99-218 225-218 123 0 226 99 226 218 0 120-103 219-226 219z m123-219c0 66-55 120-123 120-67 0-122-54-122-120 0-66 55-119 122-119 68 0 123 53 123 119z"/>
<glyph glyph-name="radio" unicode="&#109;" d="M242 396c89 0 161-72 161-160 0-89-72-161-161-161-88 0-160 72-160 161 0 88 72 160 160 160m0 48c-116 0-208-92-208-208 0-117 92-209 208-209 116 0 209 92 209 209 0 116-96 208-209 208z"/>
<glyph glyph-name="weather" unicode="&#111;" d="M478 239c0 3 0 3 0 7 0 7-4 10-4 17 0 3-3 3-3 7-3 3-3 10-7 13 0 4-3 4-3 7-4 4-7 7-10 14-4 3-4 3-7 7-4 3-7 6-11 10-3 3-3 3-6 7-4 3-7 3-11 7-3 3-6 3-10 3-3 0-7 3-10 3-3 0-10 4-14 4-27 37-68 61-116 61-17 41-68 75-123 72-30-4-58-17-78-38-21-24-31-54-31-85 4-31 17-61 41-82-24-17-41-44-41-78 0-52 41-96 92-99 0 0 0 0 4 0 13 0 24 10 24 23 0 14-11 28-24 28-28 3-48 24-48 51 0 27 24 51 51 51 4 0 7 0 10 0 7 0 14 0 21 4 7 0 10 6 13 13 7 45 45 79 89 79 21 0 38-7 51-17-10-7-20-11-30-17-11-11-14-28-7-38 10-10 24-14 34-3 14 10 27 13 44 13 11 0 17-3 28-7 7 0 10-3 13-3 0 0 4-3 4-3 3-4 7-4 7-7 3-4 3-4 6-7 0 0 4-3 4-3 3-4 3-7 7-11 0 0 0 0 0-3 0-3 3-7 3-10 0 0 0 0 0-4 0-3 0-10 0-13 0-41-34-69-82-69-13 0-24-10-24-24 0-13 11-23 24-23 79 0 133 51 133 119 0 7 0 14-3 24z m-348 58c0 0-4 3-4 3-24 7-41 31-41 58 0 17 4 35 17 48 11 14 28 21 45 21 30 3 54-17 65-41-38-17-69-48-82-89z m99-113c-14 7-28 0-34-13l-41-106c-7-14 0-27 13-34 4 0 7-4 10-4 11 0 21 7 24 17l41 106c4 14 0 27-13 34z m75 4c-14 7-28 0-34-14l-31-78c-7-14 0-28 14-35 3 0 6-3 10-3 10 0 20 7 24 17l30 79c7 13 0 30-13 34z"/>
<glyph glyph-name="calendar" unicode="&#113;" d="M403 406l-45 0 0 67c0 7-6 13-13 13-7 0-14-6-14-13l0-67-147 0 0 67c0 7-7 13-13 13-7 0-14-6-14-13l0-67-43 0c-51 0-94-41-94-92l0-206c0-52 43-93 94-93l289 0c51 0 94 41 94 93l0 206c0 51-43 92-94 92z m66-298c0-36-30-67-66-67l-289 0c-37 0-66 29-66 67l0 206c0 36 31 67 66 67l45 0 0-58c0-7 7-14 13-14 7 0 14 7 14 14l0 58 147 0 0-58c0-7 7-14 13-14 7 0 14 7 14 14l0 58 44 0c38 0 67-29 67-67l0-206z m-59 139l-46 0c-7 0-14-6-14-13l0-45c0-6 7-13 14-13 6 0 13 7 13 13l0 33 33 0c6 0 13 7 13 14 0 6-5 11-13 11z m-128 0l-46 0c-7 0-14-6-14-13l0-45c0-6 7-13 14-13 6 0 13 7 13 13l0 33 33 0c6 0 13 7 13 14 0 6-7 11-13 11z m-130 0l-46 0c-7 0-14-6-14-13l0-45c0-6 7-13 14-13 7 0 13 7 13 13l0 33 33 0c7 0 14 7 14 14 0 6-7 11-14 11z m258-97l-46 0c-7 0-14-7-14-13l0-45c0-7 7-13 14-13 6 0 13 6 13 13l0 31 33 0c6 0 13 7 13 14 0 6-5 13-13 13z m-128 0l-46 0c-7 0-14-7-14-13l0-45c0-7 7-13 14-13 6 0 13 6 13 13l0 31 33 0c6 0 13 7 13 14 0 6-7 13-13 13z m-130 0l-46 0c-7 0-14-7-14-13l0-45c0-7 7-13 14-13 7 0 13 6 13 13l0 31 33 0c7 0 14 7 14 14 0 6-7 13-14 13z"/>
<glyph glyph-name="people" unicode="&#115;" d="M150 309c45 0 82 37 82 85 0 48-36 86-82 86-46 0-82-40-82-86 0-46 36-85 82-85z m0 143c31 0 57-27 57-59 0-33-26-60-57-60-31 0-56 29-56 61 0 33 24 58 56 58z m190-220c41 0 73 34 73 77 0 43-32 77-73 77-41 0-74-34-74-77 2-43 34-77 74-77z m0 128c27 0 47-22 47-51 0-27-22-51-47-51-26 0-48 22-48 51 0 27 22 51 48 51z m24-171l-21 0c-22 0-43-6-60-18-8 53-53 95-106 95l-42 0c-60 0-108-51-108-112l0-120c0-7 5-14 12-14l418 0c7 0 12 6 12 14l0 45c2 61-46 110-105 110z m-115-141l-196 0 0 106c0 47 37 85 82 85l44 0c45 0 82-39 82-85l0-108-12 0z m196 0l-160 0 0 92c15 15 36 26 58 26l21 0c44 0 81-40 81-86z"/>
<glyph glyph-name="heart" unicode="&#116;" d="M256 24c-7 0-14 3-17 7l-116 119c-75 79-89 147-89 188 0 41 21 78 48 106 34 30 109 54 174 3 65 51 140 27 174-3 31-28 48-65 48-106 3-41-14-109-85-188l-120-119c-3-7-10-7-17-7z m-82 403c-27 0-48-14-58-21-20-17-31-41-31-68-3-48 24-102 72-154l99-102 99 102c48 52 75 106 72 151 0 27-14 51-31 68-17 17-72 44-123-7-7-10-27-10-34 0-24 24-44 31-65 31z"/>
<glyph glyph-name="map" unicode="&#117;" d="M444 375l-127 65c-6 4-17 4-23 0l-120-58-102 58c-11 4-17 4-24 0-10-3-14-10-14-20l0-290c0-7 4-17 10-21l113-65c3-3 7-3 14-3 3 0 6 0 10 3l123 58 112-58c7-3 17-3 24 0 7 4 11 11 11 21l0 290c3 10 0 17-7 20z m-38-167l-112 127 41 44 71-38z m-246 130c7-3 17-3 24 0l82 37-116-122-7 6c-6 7-13 7-24 7l-37-10 0 123z m69-174c0 3-4 10-7 10l-34 34-7 7 24 24 78-96-47-24z m-55-72l-92 51 0 65 34 10 34-37 31-31 10-48z m178 41c0 4-4 7-4 10l-112 133 23 28 147-164 0-34z"/>
<glyph glyph-name="info" unicode="&#119;" d="M256 512c-141 0-256-115-256-256 0-141 115-256 256-256 141 0 256 115 256 256 0 141-115 256-256 256z m0-465c-115 0-209 94-209 209 0 115 94 209 209 209 115 0 209-94 209-209 0-115-94-209-209-209z m0 356c-17 0-31-14-31-31 0-17 14-31 31-31 17 0 31 14 31 31 0 17-14 31-31 31z m0-108c-13 0-23-11-23-23l0-140c0-13 10-23 23-23 13 0 23 10 23 23l0 140c0 12-10 23-23 23z"/>
<glyph glyph-name="map-marker" unicode="&#120;" d="M239 0c-7 0-14 3-21 7l-122 123c-79 82-79 211 0 290 37 37 88 58 143 58 55 0 106-21 143-58 79-79 79-208 0-287l-123-123c-6-7-13-10-20-10z m0 423c-41 0-79-13-106-41-58-58-58-153 0-208l106-109 106 106c58 58 58 153 0 208-28 31-65 44-106 44z m61-208c35 34 35 89 0 123-34 34-88 34-123 0-34-34-34-89 0-123 35-34 89-34 123 0z"/>
<glyph glyph-name="lock" unicode="&#121;" d="M427 297l-21 0 0 31c0 82-68 150-150 150-82 0-147-68-147-150l0-31-17 0c-31 0-58-27-58-58l0-160c0-31 27-59 58-59l335 0c30 0 58 28 58 59l0 160c-4 31-28 58-58 58z m-267 31c0 54 45 99 99 99 55 0 99-45 99-99l0-31-198 0z"/>
<glyph glyph-name="menu" unicode="&#66;" d="M420 370l-328 0c-8 0-15 7-15 16 0 8 7 15 15 15l328 0c8 0 15-7 15-15 0-9-7-16-15-16z m0-138l-328 0c-8 0-15 7-15 15 0 9 7 16 15 16l328 0c8 0 15-7 15-16 0-8-7-15-15-15z m0-136l-328 0c-8 0-15 6-15 15 0 8 7 15 15 15l328 0c8 0 15-7 15-15 0-9-7-15-15-15z"/>
<glyph glyph-name="message" unicode="&#67;" d="M393 205l-285 0c-9 0-16 7-16 13 0 7 7 14 16 14l285 0c8 0 15-7 15-14 0-6-7-13-15-13z m0 85l-285 0c-9 0-16 7-16 14 0 7 7 13 16 13l285 0c8 0 15-6 15-13 0-7-7-14-15-14z m0 85l-285 0c-7 0-14 7-14 16 0 8 7 13 15 13l284 0c8 0 15-6 15-13 0-7-7-16-15-16z m-308-353c-1 0-3 0-5 2-5 2-8 7-8 14l0 105c-24 9-57 36-57 91l0 145c0 56 48 101 104 101l262 0c58 0 104-47 104-101l0-147c0-56-48-101-104-101l-176 0-111-105c-2-2-5-4-9-4z m34 430c-40 0-75-32-75-73l0-147c0-60 43-66 45-66 7-2 12-7 12-14l0-82 90 85c4 4 7 4 10 4l181 0c41 0 75 32 75 73l0 147c0 41-34 73-75 73z"/>
<glyph glyph-name="pen" unicode="&#68;" d="M130 102c-7 0-14 4-21 7-10 10-10 28 0 38l82 82c10 10 27 10 38 0 10-11 10-28 0-41l-82-82c-4-4-10-4-17-4z m47-102l-146 0c-14 0-28 14-28 27l0 150c0 7 4 14 7 21l167 167c11 10 28 10 38 0 10-10 10-27 0-37l-160-161 0-112 112 0 161 160c10 10 27 10 37 0 10-10 10-27 0-38l-167-167c-7-7-14-10-21-10z m274 273c-7 0-14 3-21 7l-147 150c-10 14-10 31 0 41 11 10 28 10 38 0l150-150c10-10 10-27 0-38-7-7-14-10-20-10z m-58-58c-7 0-14 3-21 7l-147 150c-10 10-10 27 0 38 11 10 28 10 38 0l150-151c10-10 10-27 0-37-7-4-14-7-20-7z"/>
<glyph glyph-name="photo" unicode="&#70;" d="M393 68l-270 0c-65 0-120 51-120 113l0 92c0 62 55 113 120 113l266 0c68 0 123-51 123-113l0-92c0-62-55-113-119-113z m-270 263c-31 0-62-24-62-58l0-92c0-31 28-58 62-58l266 0c34 0 62 27 62 58l0 92c0 31-28 58-62 58z m136-208c-61 0-109 48-109 102 0 55 48 103 109 103 62 0 110-48 110-103 0-54-52-102-110-102z m0 153c-30 0-54-20-54-47 0-28 24-48 51-48 27 0 51 20 51 48 0 27-20 47-48 47z m137 79l-51 0c-17 0-28 14-28 27 0 14 14 28 28 28l51 0c17 0 27-14 27-28 0-13-10-27-27-27z"/>
<glyph glyph-name="pointer-on-map" unicode="&#71;" d="M435 44l-189 0c-111 0-202 94-202 210 0 116 89 210 202 210 112 0 201-94 201-210l0-198c0-7-5-12-12-12z m-189 396c-99 0-179-83-179-186 0-102 80-186 179-186l179 0 0 186c-2 103-82 186-179 186z m0-295c-58 0-106 50-106 109 0 60 48 110 106 110 58 0 106-50 106-110-2-59-48-109-106-109z m0 195c-46 0-82-40-82-86 0-46 37-85 82-85 44 0 82 39 82 85 0 46-38 86-82 86z"/>
<glyph glyph-name="plus" unicode="&#72;" d="M457 290l-174 0 0 164c0 14-10 24-24 24-13 0-27-10-27-24l0-164-174 0c-14 0-24-14-24-27 0-10 10-24 24-24l174 0 0-164c0-14 10-24 24-24 14 0 24 10 24 24l0 164 174 0c14 0 24 10 24 24 3 13-7 27-21 27z"/>
<glyph glyph-name="bag" unicode="&#73;" d="M485 31l-57 370c-1 7-6 12-13 12l-62 0 0 68c0 7-5 14-13 14l-176 0c-7 0-14-7-14-14l0-66-63 0c-7 0-12-5-14-12l-51-372c0-4 0-9 4-11 1-3 6-5 10-5l437 0c3 0 7 2 10 5 2 2 3 6 2 11z m-308 437l151 0 0-53-151 0z m-126-427l48 345 53 0 0-132c0-7 5-13 14-13 6 0 13 6 13 13l0 132 150 0 0-132c0-7 6-13 14-13 7 0 14 6 14 13l0 132 51 0 53-345z"/>
<glyph glyph-name="search" unicode="&#75;" d="M297 468c-102 0-184-79-184-178 0-41 13-75 37-106 0 0 0 0-3 0l-140-133c-10-10-10-27 0-37 7-11 13-14 20-14 7 0 14 3 21 7l140 133c0 0 0 0 0 3 30-24 68-34 109-34 102 0 184 79 184 178 0 99-85 181-184 181z m0-308c-72 0-130 58-130 127 0 68 58 126 130 126 72 0 130-58 130-126 0-69-58-127-130-127z"/>
<glyph glyph-name="th-list" unicode="&#76;" d="M461 478l-400 0c-17 0-27-10-27-27l0-58c0-14 10-28 27-28l403 0c14 0 28 10 28 28l0 58c-4 17-18 27-31 27z m0-174l-400 0c-17 0-27-10-27-24l0-58c0-14 10-27 27-27l403 0c14 0 28 10 28 27l0 58c-4 14-18 24-31 24z m0-174l-400 0c-13 0-27-11-27-28l0-58c0-13 10-27 27-27l403 0c14 0 28 10 28 27l0 58c-4 17-18 28-31 28z"/>
<glyph glyph-name="th-large" unicode="&#77;" d="M133 416l0-64-61 0 0 64 61 0m38 62l-133 0c-18 0-28-14-28-27l0-137c0-14 10-27 28-27l133 0c13 0 27 13 27 27l0 137c0 13-14 27-27 27z m245-62l0-64-61 0 0 64 61 0m35 62l-134 0c-13 0-27-14-27-27l0-137c0-14 10-27 27-27l134 0c13 0 27 13 27 27l0 137c0 13-10 27-27 27z m-318-348l0-65-61 0 0 65 61 0m38 61l-133 0c-14 0-28-14-28-27l0-137c0-13 10-27 28-27l133 0c13 0 27 14 27 27l0 137c0 17-14 27-27 27z m245-61l0-65-61 0 0 65 61 0m35 61l-134 0c-13 0-27-14-27-27l0-137c0-13 10-27 27-27l134 0c13 0 27 14 27 27l0 137c0 17-10 27-27 27z"/>
<glyph glyph-name="twitter" unicode="&#98;" d="M512 415c-19-9-39-14-60-17 21 13 38 34 46 58-20-12-43-20-67-25-19 20-46 33-77 33-58 0-105-47-105-105 0-8 1-16 3-24-87 4-165 46-216 110-9-16-15-34-15-53 0-36 19-69 47-87-17 0-33 5-47 13 0-1 0-1 0-2 0-51 36-93 84-103-9-2-18-3-28-3-7 0-13 0-20 2 14-42 53-73 99-73-36-29-82-45-131-45-8 0-17 0-25 1 46-30 102-47 161-47 193 0 299 160 299 299 0 4 0 9 0 13 20 15 38 34 52 55z"/>
<glyph glyph-name="facebook" unicode="&#100;" d="M384 512l-66 0c-75 0-123-50-123-126l0-58-67 0c-6 0-10-5-10-11l0-84c0-6 4-11 10-11l67 0 0-212c0-6 5-11 10-11l88 0c5 0 10 5 10 11l0 212 78 0c6 0 11 5 11 11l0 84c0 3-1 6-3 8-2 2-5 3-8 3l-78 0 0 49c0 24 6 36 37 36l44 0c6 0 11 4 11 10l0 78c0 6-5 11-11 11z"/>
<glyph glyph-name="angle-down" unicode="&#97;" d="M256 140c-7 0-14 3-17 7l-229 174c-10 7-13 27-3 41 10 10 27 13 41 3l208-160 212 160c10 10 27 7 37-3 10-14 7-31-7-41l-225-174c-7-4-10-7-17-7z"/>
<glyph glyph-name="phone" unicode="&#99;" d="M365 3c-51 0-95 21-129 55l-181 178c-72 71-72 191 0 262 20 21 51 21 71 0l86-85c10-10 13-24 13-38 0-13-7-27-13-37l-21-21 126-126 21 21c20 20 51 20 72 0l85-86c10-10 14-24 14-37 0-14-7-28-14-38-34-31-82-48-130-48z m-273 448c-44-52-44-127 4-175l177-177c48-48 126-48 174-3l-72 71-20-20c-20-21-51-21-72 0l-136 136c-14 11-17 21-17 34 0 14 7 28 13 38l24 20z"/>
<glyph glyph-name="globe" unicode="&#102;" d="M256 454c109 0 198-89 198-198 0-109-89-198-198-198-109 0-198 89-198 198 0 109 89 198 198 198m0 58c-140 0-256-116-256-256 0-140 116-256 256-256 140 0 256 116 256 256 0 140-116 256-256 256z m-51-92l41-62c3-3 7-6 10-10l24-20c17-14 20-34 10-55-7-7-20-17-37-17l-31 0c-21 0-38-14-41-34l0-14c-4-17 3-31 17-41l31-24c0 0 3 0 3-3l41-24c14-7 27-7 41-3l44 20c4 4 11 7 14 10l38 41c10 11 13 28 10 41l-14 51c-3 11 0 21 4 31l20 34c7 14 7 31-3 45l-41 54c-7 7-14 14-28 17l-112 28c-7 3-17 3-28-4-20-10-30-41-13-61z"/>
<glyph glyph-name="arrow-bottom-o" unicode="&#103;" d="M256 10c-63 0-125 25-174 72-96 96-96 252 0 348 96 96 252 96 348 0 96-96 96-252 0-348-49-47-111-72-174-72z m0 471c-57 0-115-22-160-65-88-88-88-232 0-320 88-88 232-88 320 0 88 88 88 232 0 320-45 43-103 65-160 65z m0-284c-2 0-6 0-8 2l-86 65c-6 4-6 12-2 19 4 6 12 8 16 4l78-60 80 60c6 4 14 4 18-2 4-6 4-15-2-19l-88-65c0-4-4-4-6-4z"/>
<glyph glyph-name="remove-o" unicode="&#112;" d="M256 10c-63 0-125 25-174 72-96 96-96 252 0 348 96 96 252 96 348 0 96-96 96-252 0-348-49-47-111-72-174-72z m0 471c-57 0-115-22-160-65-88-88-88-232 0-320 88-88 232-88 320 0 88 88 88 232 0 320-45 43-103 65-160 65z m18-225l64 63c6 7 6 15 0 19-6 6-14 6-19 0l-63-64-63 66c-7 6-15 6-19 0-6-6-6-14 0-18l64-64-64-63c-6-7-6-15 0-19 6-6 14-6 19 0l63 64 63-64c7-6 15-6 19 0 6 6 6 14 0 19z"/>
<glyph glyph-name="envelope" unicode="&#114;" d="M423 413l-334 0c-48 0-89-38-89-89l0-160c0-48 41-89 89-89l334 0c48 0 89 41 89 89l0 160c0 51-41 89-89 89z m-71-58l-96-96-96 96z m102-191c0-17-14-31-31-31l-334 0c-17 0-31 14-31 31l0 160c0 14 10 24 21 28l157-154c6-7 13-7 20-7 7 0 14 4 20 7l157 154c11-4 21-14 21-28z"/>
<glyph glyph-name="man-bold" unicode="&#118;" d="M249 304c-58 0-106 48-106 106 0 58 48 102 106 102 58 0 106-48 106-106 0-58-48-102-106-102z m0 150c-24 0-44-21-44-48 0-27 20-48 48-48 27 0 47 21 47 48 0 27-24 48-51 48z m137-454l-256 0c-14 0-28 14-28 27l0 127c0 75 62 133 134 133l47 0c75 0 133-58 133-133l0-127c0-13-13-27-30-27z m-226 58l198 0 0 96c0 41-34 75-75 75l-47 0c-41 0-76-34-76-75z"/>
<glyph glyph-name="clock" unicode="&#122;" d="M256 512c-140 0-256-116-256-256 0-140 116-256 256-256 140 0 256 116 256 256 0 140-116 256-256 256z m0-454c-109 0-198 89-198 198 0 109 89 198 198 198 109 0 198-89 198-198 0-109-89-198-198-198z m38 198l51 72c10 13 7 30-7 41-14 10-34 6-41-7l-65-89c-7-10-7-24 0-34l82-106c7-7 14-10 24-10 7 0 14 3 17 7 14 10 14 27 7 41z"/>
<glyph glyph-name="man" unicode="&#110;" d="M254 311c-51 0-92 39-92 88 0 50 41 89 92 89 51 0 92-39 92-89 0-49-41-88-92-88z m0 150c-36 0-63-28-63-62 0-34 29-61 63-61 34 0 63 27 63 61 0 34-29 62-63 62z m140-449l-263 0c-8 0-13 7-13 14l0 124c0 65 54 116 121 116l49 0c67 0 122-53 122-116l0-124c-2-7-9-14-16-14z m-249 27l234 0 0 111c0 50-41 89-92 89l-50 0c-51 0-92-39-92-89z"/>
<glyph glyph-name="plus-o" unicode="&#65;" d="M260 0l-6 0c-141 0-254 113-254 252l0 6c0 141 113 254 252 254l6 0c141 0 254-113 254-252l0-6c0-141-113-254-252-254z m-8 492c-127 0-232-105-232-232l0-6c0-129 105-234 232-234l6 0c129 0 234 105 234 232l0 6c0 129-105 234-232 234z m14-226l0 70c0 8-4 12-10 12-6 0-10-4-10-10l0-72-72 0c-6 0-10-4-10-10 0-6 4-10 10-10l70 0 0-70c0-6 4-10 10-10 6 0 10 4 10 10l0 70 70 0c6 0 10 4 10 10 0 6 0 10-6 10z"/>
<glyph glyph-name="edit-o" unicode="&#69;" d="M260 0l-6 0c-141 0-254 113-254 252l0 6c0 141 113 254 252 254l6 0c141 0 254-113 254-252l0-6c0-141-113-254-252-254z m-8 492c-127 0-232-105-232-232l0-6c0-129 105-234 232-234l6 0c129 0 234 105 234 232l0 6c0 129-105 234-232 234z m-43-295c-2 0-6 2-8 4-4 4-4 12 0 16l35 35c4 4 12 4 16 0 4-4 4-12 0-16l-35-35c-4-2-6-4-8-4z m20-43l-63 0c-6 0-12 6-12 12l0 63c0 2 2 7 4 9l71 71c4 4 13 4 17 0 4-4 4-12 0-16l-68-68 0-47 47 0 68 68c4 4 12 4 16 0 4-4 4-13 0-17l-71-71c-2-2-5-4-9-4z m117 116c-2 0-6 2-8 4l-64 64c-4 4-4 12 0 16 5 4 13 4 17 0l63-63c4-4 4-12 0-17-2-2-4-4-8-4z m-24-24c-3 0-7 2-9 4l-63 63c-4 4-4 13 0 17 4 4 12 4 16 0l64-64c4-4 4-12 0-16-2-2-6-4-8-4z"/>
<glyph glyph-name="reload" unicode="&#101;" d="M475 439l0-128c0-5-1-9-5-13-4-4-8-5-13-5l-128 0c-8 0-13 3-17 11-3 7-2 14 4 20l40 39c-28 26-62 39-100 39-20 0-39-4-57-11-18-8-33-18-46-32-14-13-24-28-32-46-7-18-11-37-11-57 0-20 4-39 11-57 8-18 18-33 32-46 13-14 28-24 46-32 18-7 37-11 57-11 23 0 44 5 64 15 20 9 38 23 51 42 2 1 4 3 7 3 3 0 5-1 7-3l39-39c2-2 3-3 3-6 0-2-1-4-2-6-21-25-46-45-76-59-29-14-60-20-93-20-30 0-58 5-85 17-27 12-51 27-70 47-20 19-35 43-47 70-12 27-17 55-17 85 0 30 5 58 17 85 12 27 27 51 47 70 19 20 43 35 70 47 27 12 55 17 85 17 28 0 55-5 81-15 26-11 50-26 70-45l37 37c6 6 12 7 20 4 8-4 11-9 11-17z"/>
</font>
</defs>
</svg>
