<?xml version="1.0" encoding="utf-8"?>
<!-- Generator: Adobe Illustrator 19.2.0, SVG Export Plug-In . SVG Version: 6.00 Build 0)  -->
<svg version="1.1" id="Layer_1" xmlns="http://www.w3.org/2000/svg" xmlns:xlink="http://www.w3.org/1999/xlink" x="0px" y="0px"
	 width="612px" height="178.9px" viewBox="0 0 612 178.9" style="enable-background:new 0 0 612 178.9;" xml:space="preserve">
<style type="text/css">
	.st0{fill:#94BA53;}
	.st1{fill:#3F4C56;}
</style>
<g>
	<g>
		<path class="st0" d="M573.5,107.8c-6.4,0-12.7,0-19.1,0c-1.7,0-3.3,0.3-4.1,2c-0.7,1.7,0,3,1,4.4c5.8,7.7,13.8,8.5,22.2,6.9
			c2.8-0.5,5.3-3,7.9-4.8c2.9-2,5.2-2,7.9,0.7c2.6,2.6,2.3,4.6,0.5,7.5c-5.3,8.4-13.6,9.7-22.4,9.7c-1.7,0-2.9,0.1-4.6,0
			c-9-0.3-16.1-4.8-21.4-11.7c-2.3-2.9-2.8-4-4.3-7.2c-4.2-8.8-2.3-20.2,1.4-27.7c5-10.1,13.2-16.9,25.8-17.6
			c13.8-0.9,23.8,4.8,30.5,15.8c3,4.9,5.6,10.6,3.6,17.8c-1.3,2.9-3.3,4.3-6.7,4.2C585.7,107.6,579.6,107.8,573.5,107.8
			C573.5,107.8,573.5,107.8,573.5,107.8z M567.1,96.5c4.3,0,8.6,0.1,13,0c3-0.1,4.4-2,2.9-4.1c-3.1-4.3-7-7.7-12.2-9.3
			c-8.1-2.5-16,3.5-19.7,9.4c-1.4,2.2,0,3.9,2.7,4C558.2,96.5,562.7,96.5,567.1,96.5z"/>
		<path class="st0" d="M511.8,107.9c0-6.2,0-12.5,0-18.7c0-2.3-0.6-4.2-2.1-5.9c-1.5-1.6-2.4-3-2.7-4.4c-0.2-1-0.2-2.1,0.2-3.1
			c0.4-0.9,1-1.8,1.8-2.8c2.5-2.9,3.1-5.9,2.8-9.4c-1-9.7,7.7-15.8,15.6-17.6c3.1-0.7,5.6,0.7,7.7,2.7c3.1,3,2.2,7.7-1.9,9.2
			c-2.8,1-5.2,2.4-7.2,4.3c-3.7,3.6-2.5,8,2.4,9.3c3.2,0.8,5.6,2.8,5.6,6c0,3.4-1.8,6.2-5.7,6.7c-3.9,0.6-4.4,3.5-4.4,6.6
			c0,12.2,0,24.4,0,36.6c0,4.9-2.3,6.8-7.2,6.4c-4.2-0.4-4.8-3.4-4.9-6.7C511.8,120.6,511.9,114.3,511.8,107.9
			C511.9,107.9,511.9,107.9,511.8,107.9z"/>
		<path class="st0" d="M499.7,103.3c0,7.9,0.1,15.7,0,23.6c0,2.4-0.3,5-2.9,6.3c-1.8,0.9-3.9,1.2-5.4-0.1c-2-1.8-3.9-3.9-4-6.8
			c-0.1-15.3-0.1-30.6,0-45.9c0-3.9,3.1-6.2,7.1-6c3.6,0.2,5,1.9,5.1,6.3C499.7,88.1,499.7,95.7,499.7,103.3
			C499.7,103.3,499.7,103.3,499.7,103.3z"/>
		<path class="st0" d="M487.4,56.7c-0.2-4.2-0.7-6.7,2.6-8.8c1.3-0.7,6.5-1.2,7.8,0c0.8,0.9,1,1.3,1.3,2.2
			c1.4,4.5,1.3,11.8-0.2,14.7c-1.5,2.2-4.2,2.6-7.3,2.2c-2.1-0.4-4.1-1.8-4.2-5.3C487.4,60.2,487.4,58.7,487.4,56.7z"/>
		<path class="st0" d="M476.9,89.8c0,11.9,0,23.8,0,35.8c0,1.5,0.1,3-0.5,4.4c-1.1,2.5-3.1,3.8-5.8,3.7c-2.7-0.1-4.6-1.2-5.4-4
			c-0.4-1.5-0.6-2.9-0.6-4.4c0-23.4,0-46.9,0-70.3c0-1.1-0.1-2.2,0.2-3.2c0.9-2.9,2.4-5.2,5.9-5.1c3.3,0.1,6.2,3,6.2,6.2
			C476.9,65.2,476.9,77.5,476.9,89.8z"/>
	</g>
</g>
<g>
	<g>
		<path class="st1" d="M112.7,107.9c0,18.7,0,37.5,0,56.2c0,2.1,0,4.2-0.2,6.2c-0.7,5.1-5.1,8.8-10,8.6c-4.9-0.2-9.3-4.7-9.3-9.8
			c-0.1-11,0-21.9,0-32.9c0-0.9,0-1.7,0-2.6c-0.1-1.7-0.1-3.6-1.7-4.6c-1.8-1-2.9,0.7-4.1,1.5c-11.6,7.3-23.4,9-36.8,4.6
			c-10.1-3.3-18.3-8.8-24.9-16.8c-6.1-7.4-10.3-15.9-10.6-25.8c-0.3-7.1-0.1-14.1,1.4-21c0.8-3.8,2.8-7.4,4.7-10.6
			c6.7-11.6,16.5-19.2,29.8-22.9c6.1-1.7,12-3.3,18.2-2c7,1.5,13.8,3.7,19.5,8.4c3.5,2.9,6.3,2.4,8-1.7c1.7-4.1,5-4.1,8.4-4.1
			c3.5,0,6.1,1.3,7.1,5c0.5,2,0.6,4.1,0.6,6.1C112.7,69.2,112.7,88.6,112.7,107.9z M93.1,86.9C94.2,70.1,79.6,55.2,64,55.4
			c-15.5,0.2-30.2,13.3-30.2,31.2c0,18.1,14.9,31.1,30.6,31.3C78.8,118.2,93.8,104.6,93.1,86.9z"/>
		<path class="st1" d="M445,68c0,18.9,0,37.7,0,56.6c0,3.9-0.1,7.8-4.5,9.4c-4.7,1.8-9.9,0.1-13-3.9c-2.9-3.7-2.6-3.3-6.8-0.8
			c-11.4,6.9-23.2,10.9-37,6.4c-8.6-2.8-16.2-6.6-22.4-12.8c-5.5-5.6-9.6-12.2-12.3-19.9c-2.1-5.8-2.8-11.5-2.7-17.5
			c0.3-16,7.6-28.5,19.6-38.6c7.6-6.3,16.6-9.6,26.2-11c9.2-1.3,17.8,1,25.6,5.9c1.9,1.2,3.9,2.3,6.1,1.2c2-1,1.6-3.1,1.6-4.9
			c0-8,0-16.1,0-24.1c0-1.2,0-2.4,0-3.6c0.6-8.7,5.3-12,13.7-9.7c3,0.8,5.8,4.9,5.8,8.9c0.1,13.3,0,26.5,0.1,39.8
			C445,55.6,445,61.8,445,68z M425.4,86.7c-1.2-19-13-31.4-29.5-31.1c-18.4,0.3-30.3,13.4-30.5,31.2c-0.2,18.5,13.7,31.1,30.6,31.1
			C412.8,117.9,424.2,105.9,425.4,86.7z"/>
		<path class="st1" d="M236,86.6c1.2-29.5,22.2-50.9,50-50.7c29.1,0.2,50,21.5,50,50.8c0,30.4-21.4,50.7-50.3,50.8
			C258.5,137.6,236.7,116,236,86.6z M316.5,86.6c-0.1-17.8-13.8-31-30.2-31.1c-16.6-0.1-29.9,12-30.3,30.7
			c-0.4,19.5,14,31.6,29.5,31.7C301.9,118,316.6,105.9,316.5,86.6z"/>
		<path class="st1" d="M226.4,86.7c-0.8,29.4-22.5,50.6-49.5,50.9c-27.8,0.3-50.4-20.6-50.4-50.4c0-30.8,22.2-51,48.8-51.3
			C204.5,35.5,225,57.5,226.4,86.7z M145.7,86.7c-0.5,18.1,14.2,31.4,31,31.3c15.7-0.1,30.4-12.7,29.9-31.7
			c-0.5-18-12.9-30.4-30.5-30.8C159.9,55.1,145.6,69.1,145.7,86.7z"/>
	</g>
</g>
</svg>
